<?xml version="1.0" encoding="utf-8"?>
<!-- Generator: Adobe Illustrator 24.0.2, SVG Export Plug-In . SVG Version: 6.00 Build 0)  -->
<svg version="1.1" id="Layer_1" xmlns="http://www.w3.org/2000/svg" xmlns:xlink="http://www.w3.org/1999/xlink" x="0px" y="0px"
	 viewBox="0 0 240 80" style="enable-background:new 0 0 240 80;" xml:space="preserve">
<style type="text/css">
	.st0{fill:#EE090C;}
	.st1{fill:#FFFFFF;}
</style>
<rect id="Rectangle_754" class="st0" width="240" height="80"/>
<path id="Path_211" class="st1" d="M155.5,28.8c-0.2,1-0.5,2-0.7,2.9c-2.7,10.9-5.4,21.7-8,32.6c-0.1,0.4-0.2,0.5-0.7,0.5
	c-2.8,0-5.6,0-8.4,0c-0.4,0-0.5-0.1-0.6-0.5c-3-11.7-5.9-23.4-8.9-35.1c0-0.2-0.1-0.3-0.2-0.4v0.5c0,11.6,0,23.2,0,34.7
	c0,0.7,0,0.7-0.7,0.7h-10.6V14.1h0.5c6.2,0,12.3,0,18.5,0c0.4,0,0.5,0.1,0.6,0.5c2.2,8.6,4.4,17.2,6.7,25.8c0,0.1,0.1,0.3,0.1,0.5
	c0.1-0.3,0.1-0.4,0.2-0.6c2.1-8.5,4.2-17,6.4-25.6c0.1-0.5,0.3-0.7,0.8-0.7c6.1,0,12.2,0,18.4,0h0.7v50.7h-13.9v-36L155.5,28.8z"/>
<path id="Path_212" class="st1" d="M33.6,32.8H45V14.1h14.8v50.6H44.9V45.1H33.6v19.6H18.7V14.1h15V32.8z"/>
<path id="Path_213" class="st1" d="M223.3,39.6c0.1,4.7-1,9.4-3,13.6c-2.8,6-8.2,10.4-14.6,11.7c-5.9,1.5-12.1,0.6-17.3-2.3
	c-3.5-2-6.3-5-8.2-8.6c-1.9-3.6-3-7.5-3.2-11.5c-0.4-4.8,0.2-9.6,1.7-14.2c1.5-4.5,4.3-8.3,8.2-11c2.6-1.8,5.5-2.9,8.5-3.5
	c2.4-0.4,4.9-0.5,7.4-0.3c8.8,1,15.1,5.7,18.5,14.2c1.1,2.8,1.7,5.7,1.9,8.7C223.2,37.5,223.3,38.5,223.3,39.6z M192.7,39.9
	c0.2,1.9,0.3,3.9,0.5,5.8c0.2,2,0.9,4,2,5.7c1.7,2.4,4.8,3.2,7.4,1.9c1.5-0.8,2.6-2.2,3.1-3.8c0.8-2,1.2-4.2,1.3-6.4
	c0.2-2.9,0.2-5.8-0.2-8.7c-0.2-2.1-0.8-4.1-1.6-6c-0.8-1.9-2.5-3.3-4.6-3.6c-1.8-0.3-3.7,0.4-4.9,1.8c-1.1,1.4-1.9,3-2.3,4.8
	C193,34.4,192.7,37.2,192.7,39.9L192.7,39.9z"/>
<path id="Path_214" class="st1" d="M82.9,14.2V15c0,10.6,0,21.2,0,31.8c0,0.8,0.1,1.7,0.2,2.5c0.1,1.7,1.3,3.2,3,3.7
	c2.3,0.9,4.8,0.8,7-0.3c1.6-0.8,2.7-2.5,2.7-4.4c0.1-0.7,0.1-1.3,0.1-2c0-10.5,0-21,0-31.5v-0.7h0.6c3.5,0,7.1,0,10.6,0
	c0.5,0,0.6,0.1,0.6,0.6c0,10.6,0,21.3,0,31.9c0.1,2.4-0.2,4.8-0.7,7.1c-0.8,3.4-2.8,6.3-5.6,8.3c-2.6,1.8-5.6,3-8.7,3.3
	c-2.1,0.3-4.2,0.4-6.3,0.3c-3.7-0.1-7.4-1-10.8-2.6c-3.4-1.5-5.9-4.5-7-8c-0.6-1.9-0.9-3.9-0.8-5.9c0-7.7,0-15.4,0-23.1
	c0-3.8,0-7.5,0-11.3c0-0.4,0.1-0.5,0.5-0.5c4.8,0,9.5,0,14.3,0C82.6,14.2,82.7,14.2,82.9,14.2z"/>
</svg>
