<svg enable-background="new 0 0 28.3 28.3" viewBox="0 0 28.3 28.3" xmlns="http://www.w3.org/2000/svg"><g fill="#ee090c"><path d="m26.3 2.6h-21.1v.2l-.3-.9c-.3-1.1-1.3-1.9-2.5-1.9h-1.8c-.3 0-.6.3-.6.6s.3.6.6.6h1.8c.6 0 1.1.4 1.2.9l4 13.7-2.1 2.6c-.3.4-.5.8-.5 1.3 0 1.1.9 2.1 2.1 2.1h17.9c.4 0 .6-.3.6-.6 0-.4-.3-.6-.6-.6h-17.8c-.4 0-.8-.4-.8-.8 0-.2.1-.4.2-.5l2.1-2.6h12.6c1 0 1.9-.6 2.3-1.5l4.5-9.6c.1-.3.2-.6.2-.9v0c0-1.2-.9-2.1-2-2.1zm.8 2.2c0 .1 0 .2-.1.3l-4.5 9.6c-.2.4-.7.7-1.2.7h-12.4l-3.4-11.5h20.8c.4 0 .8.4.8.8z"/><path d="m7.7 23.2c-1.4 0-2.6 1.2-2.6 2.6s1.2 2.6 2.6 2.6 2.6-1.2 2.6-2.6-1.1-2.6-2.6-2.6zm0 3.9c-.7 0-1.3-.6-1.3-1.3s.6-1.3 1.3-1.3 1.3.6 1.3 1.3-.6 1.3-1.3 1.3z"/><path d="m23.2 23.2c-1.4 0-2.6 1.2-2.6 2.6s1.2 2.6 2.6 2.6 2.6-1.2 2.6-2.6-1.2-2.6-2.6-2.6zm0 3.9c-.7 0-1.3-.6-1.3-1.3s.6-1.3 1.3-1.3 1.3.6 1.3 1.3-.6 1.3-1.3 1.3z"/></g></svg>