<?xml version="1.0" encoding="utf-8"?>
<!-- Generator: Adobe Illustrator 24.0.1, SVG Export Plug-In . SVG Version: 6.00 Build 0)  -->
<svg version="1.1" id="Layer_1" xmlns="http://www.w3.org/2000/svg" xmlns:xlink="http://www.w3.org/1999/xlink" x="0px" y="0px"
	 viewBox="0 0 28.3 28.3" style="enable-background:new 0 0 28.3 28.3;" xml:space="preserve">
<style type="text/css">
	.st0{fill:#EE090C;}
</style>
<g>
	<g>
		<g>
			<path d="M26.3,2.6H5.2v0.2L4.9,1.9C4.6,0.8,3.6,0,2.4,0H0.6C0.3,0,0,0.3,0,0.6s0.3,0.6,0.6,0.6h1.8c0.6,0,1.1,0.4,1.2,0.9l4,13.7
				l-2.1,2.6C5.2,18.8,5,19.2,5,19.7c0,1.1,0.9,2.1,2.1,2.1H25c0.4,0,0.6-0.3,0.6-0.6c0-0.4-0.3-0.6-0.6-0.6H7.2
				c-0.4,0-0.8-0.4-0.8-0.8c0-0.2,0.1-0.4,0.2-0.5l2.1-2.6h12.6c1,0,1.9-0.6,2.3-1.5l4.5-9.6c0.1-0.3,0.2-0.6,0.2-0.9v0
				C28.3,3.5,27.4,2.6,26.3,2.6z M27.1,4.8c0,0.1,0,0.2-0.1,0.3l-4.5,9.6c-0.2,0.4-0.7,0.7-1.2,0.7H8.9L5.5,3.9h20.8
				C26.7,3.9,27.1,4.3,27.1,4.8C27.1,4.7,27.1,4.8,27.1,4.8z"/>
			<path d="M7.7,23.2c-1.4,0-2.6,1.2-2.6,2.6s1.2,2.6,2.6,2.6s2.6-1.2,2.6-2.6S9.2,23.2,7.7,23.2z M7.7,27.1c-0.7,0-1.3-0.6-1.3-1.3
				s0.6-1.3,1.3-1.3S9,25.1,9,25.8C9,26.5,8.4,27.1,7.7,27.1z"/>
			<path d="M23.2,23.2c-1.4,0-2.6,1.2-2.6,2.6s1.2,2.6,2.6,2.6s2.6-1.2,2.6-2.6S24.6,23.2,23.2,23.2z M23.2,27.1
				c-0.7,0-1.3-0.6-1.3-1.3s0.6-1.3,1.3-1.3s1.3,0.6,1.3,1.3S23.9,27.1,23.2,27.1z"/>
		</g>
	</g>
</g>
<circle class="st0" cx="23.2" cy="3.3" r="3.3"/>
</svg>
