<?xml version="1.0" encoding="utf-8"?>
<!-- Generator: Adobe Illustrator 24.0.1, SVG Export Plug-In . SVG Version: 6.00 Build 0)  -->
<svg version="1.1" id="Layer_1" xmlns="http://www.w3.org/2000/svg" xmlns:xlink="http://www.w3.org/1999/xlink" x="0px" y="0px"
	 viewBox="0 0 25.5 21.5" style="enable-background:new 0 0 25.5 21.5;" xml:space="preserve">
<path d="M7.8,14.5h12.4c0.4,0,0.8-0.3,0.9-0.7L23.8,4c0.1-0.3,0-0.6-0.2-0.8s-0.5-0.4-0.7-0.4H6.4L5.9,0.7C5.9,0.3,5.5,0,5,0H0.9
	C0.4,0,0,0.4,0,0.9s0.4,1,1,1h3.3l2.4,11C6,13.3,5.5,14.1,5.5,15c0,1.3,1,2.3,2.3,2.4c-0.5,0.4-0.9,1.1-0.9,1.9
	c0,1.2,1.1,2.2,2.3,2.2c0,0,0,0,0.1,0c0.6,0,1.2-0.3,1.6-0.7c0.4-0.4,0.6-1,0.6-1.6c0-0.7-0.3-1.3-0.9-1.7h6.8
	c-0.5,0.4-0.9,1.1-0.9,1.9c0,1.2,1.1,2.2,2.3,2.2c0,0,0,0,0.1,0c1.3,0,2.3-1.1,2.2-2.4c0-0.7-0.4-1.3-0.9-1.7c0.5,0,0.9-0.4,0.9-0.9
	s-0.4-1-0.9-1H7.8c-0.2,0-0.5-0.2-0.5-0.4S7.5,14.5,7.8,14.5z M18.4,19.1c0-0.2,0.2-0.4,0.4-0.4l0,0c0.2,0,0.4,0.2,0.4,0.4
	c0,0.2-0.2,0.5-0.4,0.5l0,0C18.6,19.6,18.4,19.4,18.4,19.1z M8.7,19.1c0-0.2,0.2-0.4,0.4-0.4l0,0c0.1,0,0.2,0,0.3,0.1
	s0.1,0.2,0.1,0.3c0,0.2-0.2,0.5-0.4,0.5C8.9,19.6,8.7,19.4,8.7,19.1z M6.8,4.7h14.8l-2.2,7.9H8.5L6.8,4.7z"/>
</svg>
