<?xml version="1.0" encoding="utf-8"?>
<!-- Generator: Adobe Illustrator 24.0.2, SVG Export Plug-In . SVG Version: 6.00 Build 0)  -->
<svg version="1.1" id="Layer_1" xmlns="http://www.w3.org/2000/svg" xmlns:xlink="http://www.w3.org/1999/xlink" x="0px" y="0px"
	 viewBox="0 0 31.2 31.2" style="enable-background:new 0 0 31.2 31.2;" xml:space="preserve">
<style type="text/css">
	.st0{fill:#EE090C;}
</style>
<g>
	<g>
		<g>
			<path d="M26.3,5.5H5.2v0.2L4.9,4.8C4.6,3.7,3.6,2.9,2.4,2.9H0.6C0.3,2.9,0,3.2,0,3.5s0.3,0.6,0.6,0.6h1.8C3,4.1,3.5,4.5,3.6,5
				l4,13.7l-2.1,2.6C5.2,21.7,5,22.1,5,22.6c0,1.1,0.9,2.1,2.1,2.1H25c0.4,0,0.6-0.3,0.6-0.6c0-0.4-0.3-0.6-0.6-0.6H7.2
				c-0.4,0-0.8-0.4-0.8-0.8c0-0.2,0.1-0.4,0.2-0.5l2.1-2.6h12.6c1,0,1.9-0.6,2.3-1.5l4.5-9.6c0.1-0.3,0.2-0.6,0.2-0.9l0,0
				C28.3,6.4,27.4,5.5,26.3,5.5z M27.1,7.7c0,0.1,0,0.2-0.1,0.3l-4.5,9.6c-0.2,0.4-0.7,0.7-1.2,0.7H8.9L5.5,6.8h20.8
				C26.7,6.8,27.1,7.2,27.1,7.7C27.1,7.6,27.1,7.7,27.1,7.7z"/>
			<path d="M7.7,26.1c-1.4,0-2.6,1.2-2.6,2.6s1.2,2.6,2.6,2.6s2.6-1.2,2.6-2.6S9.2,26.1,7.7,26.1z M7.7,30c-0.7,0-1.3-0.6-1.3-1.3
				s0.6-1.3,1.3-1.3S9,28,9,28.7C9,29.4,8.4,30,7.7,30z"/>
			<path d="M23.2,26.1c-1.4,0-2.6,1.2-2.6,2.6s1.2,2.6,2.6,2.6s2.6-1.2,2.6-2.6S24.6,26.1,23.2,26.1z M23.2,30
				c-0.7,0-1.3-0.6-1.3-1.3s0.6-1.3,1.3-1.3s1.3,0.6,1.3,1.3S23.9,30,23.2,30z"/>
		</g>
	</g>
</g>
<circle class="st0" cx="26.9" cy="4.3" r="4.3"/>
</svg>
