<?xml version="1.0" encoding="utf-8"?>
<!-- Generator: Adobe Illustrator 24.0.2, SVG Export Plug-In . SVG Version: 6.00 Build 0)  -->
<svg version="1.1" id="Capa_1" xmlns="http://www.w3.org/2000/svg" xmlns:xlink="http://www.w3.org/1999/xlink" x="0px" y="0px"
	 viewBox="0 0 31.2 31.2" style="enable-background:new 0 0 31.2 31.2;" xml:space="preserve">
<g>
	<g>
		<g>
			<path d="M23,15.7h-22c-0.5,0-0.9,0.4-0.9,0.9s0.4,0.9,0.9,0.9h22c0.5,0,0.9-0.4,0.9-0.9S23.5,15.7,23,15.7z"/>
		</g>
	</g>
	<g>
		<g>
			<path d="M23,8.2h-22C0.4,8.2,0,8.7,0,9.2c0,0.5,0.4,0.9,0.9,0.9h22c0.5,0,0.9-0.4,0.9-0.9C23.9,8.7,23.5,8.2,23,8.2z"/>
		</g>
	</g>
	<g>
		<g>
			<path d="M23,23.2h-22c-0.5,0-0.9,0.4-0.9,0.9C0,24.6,0.4,25,0.9,25h22c0.5,0,0.9-0.4,0.9-0.9C23.9,23.6,23.5,23.2,23,23.2z"/>
		</g>
	</g>
</g>
</svg>
