<?xml version="1.0" encoding="utf-8"?>
<!-- Generator: Adobe Illustrator 24.0.1, SVG Export Plug-In . SVG Version: 6.00 Build 0)  -->
<svg version="1.1" id="Layer_1" xmlns="http://www.w3.org/2000/svg" xmlns:xlink="http://www.w3.org/1999/xlink" x="0px" y="0px"
	 viewBox="0 0 28.3 28.3" style="enable-background:new 0 0 28.3 28.3;" xml:space="preserve">
<g>
	<g>
		<path d="M28.2,27.3l-8.6-8.6c1.8-2,2.9-4.6,2.9-7.5C22.4,5,17.4,0,11.2,0S0,5,0,11.2s5,11.2,11.2,11.2c2.9,0,5.5-1.1,7.5-2.9
			l8.6,8.6c0.1,0.1,0.3,0.2,0.4,0.2s0.3-0.1,0.4-0.2C28.4,27.9,28.4,27.6,28.2,27.3z M11.2,21.3c-5.5,0-10-4.5-10-10s4.5-10,10-10
			s10,4.5,10,10S16.8,21.3,11.2,21.3z"/>
	</g>
</g>
</svg>
