<svg xmlns="http://www.w3.org/2000/svg" width="18.955" height="19.424" viewBox="0 0 18.955 19.424">
  <path id="Path_215" data-name="Path 215" d="M18.572,17.132l-4.006-4.105A8.369,8.369,0,0,0,13.72,2.413a7.9,7.9,0,0,0-11.365,0,8.38,8.38,0,0,0,0,11.646,7.874,7.874,0,0,0,10.358.867l4.006,4.105a1.288,1.288,0,0,0,1.853,0A1.366,1.366,0,0,0,18.572,17.132ZM4.208,12.159a5.647,5.647,0,0,1,0-7.848,5.322,5.322,0,0,1,7.659,0,5.646,5.646,0,0,1,0,7.849,5.325,5.325,0,0,1-7.659,0Z" transform="translate(-0.001)"/>
</svg>
