<?xml version="1.0" encoding="utf-8"?>
<!-- Generator: Adobe Illustrator 24.0.1, SVG Export Plug-In . SVG Version: 6.00 Build 0)  -->
<svg version="1.1" id="Layer_1" xmlns="http://www.w3.org/2000/svg" xmlns:xlink="http://www.w3.org/1999/xlink" x="0px" y="0px"
	 viewBox="0 0 19 19.4" style="enable-background:new 0 0 19 19.4;" xml:space="preserve">
<style type="text/css">
	.st0{fill:#EE090C;}
</style>
<path id="Path_215" class="st0" d="M18.6,17.1l-4-4.1c2.3-3.3,1.9-7.7-0.8-10.6c-3-3.1-8-3.2-11.2-0.2C2.5,2.3,2.4,2.3,2.4,2.4
	c-3.1,3.2-3.1,8.4,0,11.6c2.7,2.9,7.2,3.2,10.4,0.9l4,4.1c0.5,0.5,1.3,0.5,1.8,0c0,0,0,0,0,0C19.1,18.5,19.1,17.7,18.6,17.1z
	 M4.2,12.2c-2.1-2.2-2.1-5.7,0-7.8c2-2.1,5.4-2.2,7.5-0.1c0,0,0.1,0.1,0.1,0.1c2.1,2.2,2.1,5.7,0,7.8c-2,2.1-5.4,2.2-7.5,0.1
	C4.3,12.2,4.2,12.2,4.2,12.2L4.2,12.2z"/>
</svg>
