<?xml version="1.0" encoding="utf-8"?>
<!-- Generator: Adobe Illustrator 24.0.2, SVG Export Plug-In . SVG Version: 6.00 Build 0)  -->
<svg version="1.1" id="Capa_1" xmlns="http://www.w3.org/2000/svg" xmlns:xlink="http://www.w3.org/1999/xlink" x="0px" y="0px"
	 viewBox="0 0 31.2 31.2" style="enable-background:new 0 0 31.2 31.2;" xml:space="preserve">
<g>
	<g>
		<g>
			<path d="M13.5,17C6.1,17,0,23.1,0,30.6c0,0.3,0.3,0.6,0.6,0.6s0.6-0.3,0.6-0.6c0-6.8,5.5-12.4,12.4-12.4s12.4,5.5,12.4,12.4
				c0,0.3,0.3,0.6,0.6,0.6c0.3,0,0.6-0.3,0.6-0.6C27.1,23.1,21,17,13.5,17z"/>
		</g>
	</g>
	<g>
		<g>
			<path d="M13.5,2.8c-3.6,0-6.5,2.9-6.5,6.5s2.9,6.5,6.5,6.5S20,12.9,20,9.3S17.1,2.8,13.5,2.8z M13.5,14.6c-2.9,0-5.3-2.4-5.3-5.3
				S10.6,4,13.5,4s5.3,2.4,5.3,5.3S16.5,14.6,13.5,14.6z"/>
		</g>
	</g>
</g>
</svg>
