<?xml version="1.0" encoding="utf-8"?>
<!-- Generator: Adobe Illustrator 23.0.3, SVG Export Plug-In . SVG Version: 6.00 Build 0)  -->
<svg version="1.1" id="Layer_1" xmlns="http://www.w3.org/2000/svg" xmlns:xlink="http://www.w3.org/1999/xlink" x="0px" y="0px"
	 viewBox="0 0 327 231" style="enable-background:new 0 0 327 231;" xml:space="preserve">
<style type="text/css">
	.st0{fill-rule:evenodd;clip-rule:evenodd;fill:#005697;}
	.st1{fill-rule:evenodd;clip-rule:evenodd;fill:#FBD500;}
</style>
<title>Artboard</title>
<desc>Created with Sketch.</desc>
<g id="Artboard">
	<g id="Group-10" transform="translate(0.000000, -1.000000)">
		<path id="Fill-4" class="st0" d="M291.3,46.6H276h-70.7h-15.3l-10.3,11.6l-33.4,37.6v0l-10.3,11.6h-15.3H51.5H36.2l10.1-11.7
			l4.8-5.6l10.1-11.7H46H26.3h-11C6.8,78.3-0.1,85.4-0.1,94v0v30.3v2.8c0,8.6,6.9,15.7,15.3,15.7h4.3h160.4h11.5
			c8.4,0,19.9-5.2,25.5-11.6l26.7-30.3L291.3,46.6z"/>
		<path id="Fill-6" class="st1" d="M311.6,11.2c8.4,0,15.3,7.1,15.3,15.7V60c0,8.6-6.9,15.7-15.3,15.7h-8.3h-22.3h-15.3L276,64h0
			l5.1-5.8l10.2-11.6H190.1l-54,60.8H35.6l72.1-81.5l2.7-3.1c5.7-6.4,17.2-11.6,25.6-11.6h3.6H311.6z"/>
		<path id="Fill-8" class="st0" d="M34.4,199c0-2.2-0.5-4-1.5-5.6c-1-1.6-2.4-2.8-4-3.6c1.7-0.8,2.9-2.1,3.9-3.7
			c0.9-1.6,1.4-3.4,1.4-5.5v-1.1c0-2.5-0.5-4.6-1.4-6.2c-1-1.7-2.3-3-4-4c-1.7-1-3.8-1.7-6.2-2.2c-2.4-0.4-5.1-0.7-8-0.7
			c-1,0-2,0-3.1,0.1c-1.1,0-2.1,0.1-3.1,0.2c-1,0.1-2,0.1-2.8,0.2c-0.9,0.1-1.5,0.2-2.1,0.2c-1.2,0.2-2.1,0.6-2.6,1.1
			c-0.5,0.5-0.7,1.5-0.7,2.9v37.9c0,1.4,0.3,2.4,0.8,2.9c0.5,0.5,1.4,0.9,2.6,1.1c0.6,0.1,1.4,0.2,2.2,0.3c0.9,0.1,1.8,0.2,2.8,0.2
			c1,0.1,2.1,0.1,3.1,0.2c1.1,0,2.1,0.1,3.2,0.1c2.7,0,5.2-0.2,7.6-0.6c2.4-0.4,4.5-1.2,6.2-2.2c1.8-1.1,3.2-2.5,4.2-4.3
			c1-1.8,1.6-4.1,1.6-6.8V199z M23.8,181.1c0,0.7-0.1,1.3-0.3,1.9c-0.2,0.6-0.5,1.1-1,1.6c-0.5,0.4-1.1,0.8-1.9,1.1
			c-0.8,0.3-1.8,0.4-3.1,0.4h-7v-10.8c0.2,0,0.5,0,1,0c0.4,0,0.9,0,1.4,0h1.4h1c3.2,0,5.4,0.4,6.7,1.2c1.3,0.8,1.9,2.1,1.9,3.8
			V181.1z M24,199.7c0,1.7-0.6,3.1-1.8,4c-1.2,1-3.4,1.4-6.6,1.4h-1c-0.5,0-1,0-1.5,0c-0.5,0-1,0-1.5,0h-1.1v-11.7h7
			c2.5,0,4.2,0.6,5.2,1.7c1,1.1,1.4,2.4,1.4,3.9V199.7z M68.5,189.8c0-2.3-0.3-4.2-1-5.8c-0.7-1.6-1.7-2.9-2.9-3.9
			c-1.2-1-2.8-1.8-4.6-2.2c-1.8-0.5-3.8-0.7-6.1-0.7c-2.1,0-4.1,0.1-6.1,0.4c-2,0.3-3.5,0.6-4.7,0.9c-0.8,0.2-1.2,0.7-1.2,1.4v5
			c0,0.4,0.1,0.7,0.3,0.9c0.2,0.2,0.5,0.3,0.8,0.3h0.3c0.5,0,1.1-0.1,1.9-0.2c0.7-0.1,1.6-0.1,2.5-0.2c0.9,0,1.9-0.1,2.9-0.1
			c1,0,2,0,3,0c1.5,0,2.6,0.3,3.4,0.8c0.8,0.5,1.2,1.7,1.2,3.5v2.2h-3.4c-5.4,0-9.3,0.8-11.7,2.5c-2.4,1.7-3.6,4.4-3.6,8v0.6
			c0,2,0.3,3.7,0.9,5.1c0.6,1.4,1.4,2.5,2.4,3.3c1,0.8,2.1,1.4,3.4,1.8c1.3,0.4,2.6,0.5,4,0.5c1.9,0,3.5-0.2,4.8-0.7
			c1.3-0.5,2.6-1.2,3.8-2.1v1c0,0.3,0.1,0.6,0.4,0.9c0.2,0.2,0.5,0.4,0.9,0.4h7c0.3,0,0.6-0.1,0.9-0.4c0.2-0.2,0.4-0.5,0.4-0.9
			V189.8z M58.6,204.9c-0.7,0.4-1.5,0.7-2.4,1c-0.9,0.3-1.8,0.4-2.7,0.4c-1.3,0-2.3-0.2-3-0.6c-0.6-0.4-1-1.2-1-2.6v-0.6
			c0-0.7,0.1-1.4,0.2-2c0.2-0.6,0.5-1.1,0.9-1.4c0.4-0.4,1-0.7,1.7-0.8c0.7-0.2,1.6-0.3,2.7-0.3h3.6V204.9z M106.7,212v-20.7
			c0-1.9-0.2-3.8-0.5-5.5c-0.3-1.7-0.9-3.2-1.7-4.5c-0.8-1.3-1.9-2.3-3.4-3c-1.4-0.7-3.3-1.1-5.5-1.1c-2,0-3.8,0.2-5.3,0.7
			c-1.5,0.5-3.2,1.3-4.9,2.5v-1.5c0-0.3-0.1-0.6-0.4-0.9c-0.2-0.3-0.5-0.4-0.9-0.4h-7c-0.3,0-0.6,0.1-0.9,0.4
			c-0.2,0.2-0.4,0.5-0.4,0.9V212c0,0.3,0.1,0.6,0.4,0.9c0.3,0.3,0.6,0.4,0.9,0.4h7.5c0.3,0,0.6-0.1,0.9-0.4c0.2-0.3,0.4-0.6,0.4-0.9
			v-24.5c1.1-0.6,2.1-1.1,3.1-1.4c1-0.4,1.9-0.6,2.8-0.6c1,0,1.7,0.1,2.3,0.3c0.6,0.2,1.1,0.5,1.4,1c0.3,0.5,0.6,1.1,0.7,1.8
			c0.1,0.7,0.2,1.7,0.2,2.7V212c0,0.3,0.1,0.6,0.4,0.9c0.2,0.3,0.5,0.4,0.9,0.4h7.5c0.3,0,0.6-0.1,0.9-0.4
			C106.5,212.7,106.7,212.4,106.7,212z M137.3,211.5V206c0-0.3-0.1-0.6-0.3-0.8c-0.2-0.2-0.5-0.3-0.8-0.3H136
			c-1.2,0.1-2.3,0.2-3.3,0.3c-1.1,0.1-2.5,0.1-4.3,0.1c-0.7,0-1.4-0.1-2-0.3c-0.6-0.2-1.2-0.6-1.6-1.2c-0.5-0.6-0.8-1.3-1.1-2.2
			c-0.3-0.9-0.4-2.1-0.4-3.5v-5.2c0-1.4,0.1-2.5,0.4-3.5c0.3-0.9,0.6-1.7,1.1-2.2c0.5-0.6,1-1,1.6-1.2c0.6-0.2,1.3-0.3,2-0.3
			c1.8,0,3.2,0,4.3,0.1c1.1,0.1,2.2,0.2,3.3,0.3h0.1c0.3,0,0.6-0.1,0.8-0.3c0.2-0.2,0.3-0.4,0.3-0.8v-5.5c0-0.5-0.1-0.8-0.3-1
			c-0.2-0.2-0.5-0.3-1-0.5c-0.9-0.2-2-0.4-3.4-0.6c-1.4-0.2-3-0.3-4.9-0.3c-4.4,0-7.9,1.3-10.6,4.1c-2.6,2.7-4,6.6-4,11.7v5.2
			c0,5.1,1.3,9,4,11.7c2.6,2.7,6.2,4.1,10.6,4.1c1.9,0,3.5-0.1,4.9-0.3c1.4-0.2,2.5-0.4,3.4-0.6c0.5-0.1,0.8-0.3,1-0.5
			C137.2,212.3,137.3,212,137.3,211.5z M171.9,193.3c0-2.5-0.3-4.7-1-6.7c-0.7-2-1.7-3.7-3-5.1c-1.3-1.4-2.9-2.5-4.9-3.2
			c-1.9-0.8-4.2-1.2-6.7-1.2s-4.8,0.4-6.7,1.2c-1.9,0.8-3.6,1.8-4.9,3.2c-1.3,1.4-2.3,3.1-3,5.1c-0.7,2-1,4.2-1,6.7v4.4
			c0,2.5,0.3,4.7,1,6.7c0.7,2,1.7,3.7,3,5.1c1.3,1.4,3,2.5,4.9,3.2c1.9,0.8,4.2,1.2,6.7,1.2s4.8-0.4,6.7-1.2
			c1.9-0.8,3.6-1.8,4.9-3.2s2.3-3.1,3-5.1c0.7-2,1-4.2,1-6.7V193.3z M161.8,197.7c0,5.1-1.8,7.7-5.5,7.7c-1.8,0-3.2-0.6-4.2-1.9
			c-1-1.3-1.4-3.2-1.4-5.7v-4.4c0-2.5,0.5-4.4,1.4-5.7c0.9-1.3,2.3-1.9,4.2-1.9c3.7,0,5.5,2.5,5.5,7.6V197.7z M209,212v-20.7
			c0-1.9-0.2-3.8-0.5-5.5c-0.3-1.7-0.9-3.2-1.7-4.5c-0.8-1.3-1.9-2.3-3.4-3c-1.4-0.7-3.3-1.1-5.5-1.1c-2,0-3.8,0.2-5.3,0.7
			c-1.5,0.5-3.2,1.3-4.9,2.5v-1.5c0-0.3-0.1-0.6-0.4-0.9c-0.2-0.3-0.5-0.4-0.9-0.4h-7c-0.3,0-0.6,0.1-0.9,0.4
			c-0.2,0.2-0.4,0.5-0.4,0.9V212c0,0.3,0.1,0.6,0.4,0.9c0.3,0.3,0.6,0.4,0.9,0.4h7.5c0.3,0,0.6-0.1,0.9-0.4c0.2-0.3,0.4-0.6,0.4-0.9
			v-24.5c1.1-0.6,2.1-1.1,3.1-1.4c1-0.4,1.9-0.6,2.8-0.6c1,0,1.7,0.1,2.3,0.3c0.6,0.2,1.1,0.5,1.4,1c0.3,0.5,0.6,1.1,0.7,1.8
			c0.1,0.7,0.2,1.7,0.2,2.7V212c0,0.3,0.1,0.6,0.4,0.9c0.2,0.3,0.5,0.4,0.9,0.4h7.5c0.3,0,0.6-0.1,0.9-0.4
			C208.8,212.7,209,212.4,209,212z M236.2,212.2v-4.8c0-0.7-0.4-1.1-1.3-1.1h-3.1c-1,0-1.5-0.2-1.7-0.5c-0.2-0.4-0.3-1.2-0.3-2.4
			v-18.1h5.1c0.3,0,0.6-0.1,0.9-0.4s0.4-0.5,0.4-0.9v-5.1c0-0.3-0.1-0.6-0.4-0.9s-0.5-0.4-0.9-0.4h-5.1V171c0-0.3-0.1-0.6-0.3-0.8
			c-0.2-0.2-0.5-0.3-0.8-0.3h-0.2l-7.6,1.3c-0.3,0.1-0.6,0.2-0.9,0.4c-0.2,0.2-0.4,0.5-0.4,0.8v5.1h-5c-0.3,0-0.6,0.1-0.9,0.4
			c-0.3,0.3-0.4,0.6-0.4,0.9v4.1c0,0.3,0.1,0.6,0.4,0.8c0.3,0.2,0.6,0.4,0.9,0.5l5,0.8v18.1c0,2.2,0.2,4,0.7,5.4
			c0.5,1.4,1.1,2.5,2,3.3c0.9,0.8,2,1.3,3.3,1.6c1.3,0.3,2.8,0.4,4.5,0.4c0.9,0,1.7,0,2.4-0.1c0.7-0.1,1.5-0.2,2.5-0.4
			C235.8,213.3,236.2,212.9,236.2,212.2z M269.4,189.8c0-2.3-0.3-4.2-1-5.8c-0.7-1.6-1.6-2.9-2.9-3.9c-1.2-1-2.8-1.8-4.6-2.2
			c-1.8-0.5-3.8-0.7-6.1-0.7c-2.1,0-4.1,0.1-6.1,0.4c-2,0.3-3.5,0.6-4.7,0.9c-0.8,0.2-1.2,0.7-1.2,1.4v5c0,0.4,0.1,0.7,0.3,0.9
			c0.2,0.2,0.5,0.3,0.8,0.3h0.3c0.5,0,1.1-0.1,1.9-0.2c0.7-0.1,1.6-0.1,2.5-0.2c0.9,0,1.9-0.1,2.9-0.1c1,0,2,0,3,0
			c1.5,0,2.6,0.3,3.4,0.8c0.8,0.5,1.2,1.7,1.2,3.5v2.2H256c-5.4,0-9.3,0.8-11.7,2.5c-2.4,1.7-3.6,4.4-3.6,8v0.6c0,2,0.3,3.7,0.9,5.1
			c0.6,1.4,1.4,2.5,2.4,3.3c1,0.8,2.1,1.4,3.4,1.8c1.3,0.4,2.6,0.5,4,0.5c1.9,0,3.5-0.2,4.8-0.7c1.3-0.5,2.6-1.2,3.8-2.1v1
			c0,0.3,0.1,0.6,0.4,0.9c0.2,0.2,0.5,0.4,0.9,0.4h7c0.3,0,0.6-0.1,0.9-0.4c0.2-0.2,0.4-0.5,0.4-0.9V189.8z M259.5,204.9
			c-0.7,0.4-1.5,0.7-2.4,1c-0.9,0.3-1.8,0.4-2.7,0.4c-1.3,0-2.3-0.2-3-0.6s-1-1.2-1-2.6v-0.6c0-0.7,0.1-1.4,0.2-2
			c0.2-0.6,0.5-1.1,0.9-1.4c0.4-0.4,1-0.7,1.7-0.8c0.7-0.2,1.6-0.3,2.7-0.3h3.6V204.9z M300.1,211.5V206c0-0.3-0.1-0.6-0.3-0.8
			c-0.2-0.2-0.5-0.3-0.8-0.3h-0.1c-1.2,0.1-2.3,0.2-3.3,0.3c-1.1,0.1-2.5,0.1-4.3,0.1c-0.7,0-1.4-0.1-2-0.3
			c-0.6-0.2-1.2-0.6-1.6-1.2c-0.5-0.6-0.8-1.3-1.1-2.2c-0.3-0.9-0.4-2.1-0.4-3.5v-5.2c0-1.4,0.1-2.5,0.4-3.5
			c0.3-0.9,0.6-1.7,1.1-2.2c0.5-0.6,1-1,1.6-1.2c0.6-0.2,1.3-0.3,2-0.3c1.8,0,3.2,0,4.3,0.1c1.1,0.1,2.2,0.2,3.3,0.3h0.1
			c0.3,0,0.6-0.1,0.8-0.3c0.2-0.2,0.3-0.4,0.3-0.8v-5.5c0-0.5-0.1-0.8-0.3-1c-0.2-0.2-0.5-0.3-1-0.5c-0.9-0.2-2-0.4-3.4-0.6
			c-1.4-0.2-3-0.3-4.9-0.3c-4.4,0-7.9,1.3-10.6,4.1c-2.6,2.7-4,6.6-4,11.7v5.2c0,5.1,1.3,9,4,11.7c2.6,2.7,6.2,4.1,10.6,4.1
			c1.9,0,3.5-0.1,4.9-0.3c1.4-0.2,2.5-0.4,3.4-0.6c0.5-0.1,0.8-0.3,1-0.5C300,212.3,300.1,212,300.1,211.5z M326.9,212.2v-4.8
			c0-0.7-0.4-1.1-1.3-1.1h-3.1c-1,0-1.5-0.2-1.7-0.5c-0.2-0.4-0.3-1.2-0.3-2.4v-18.1h5.1c0.3,0,0.6-0.1,0.9-0.4
			c0.2-0.3,0.4-0.5,0.4-0.9v-5.1c0-0.3-0.1-0.6-0.4-0.9c-0.2-0.3-0.5-0.4-0.9-0.4h-5.1V171c0-0.3-0.1-0.6-0.3-0.8
			c-0.2-0.2-0.5-0.3-0.8-0.3h-0.2l-7.6,1.3c-0.3,0.1-0.6,0.2-0.9,0.4c-0.2,0.2-0.4,0.5-0.4,0.8v5.1h-5c-0.3,0-0.6,0.1-0.9,0.4
			c-0.3,0.3-0.4,0.6-0.4,0.9v4.1c0,0.3,0.1,0.6,0.4,0.8c0.3,0.2,0.6,0.4,0.9,0.5l5,0.8v18.1c0,2.2,0.2,4,0.7,5.4
			c0.5,1.4,1.1,2.5,2,3.3c0.9,0.8,1.9,1.3,3.3,1.6c1.3,0.3,2.8,0.4,4.5,0.4c0.9,0,1.7,0,2.4-0.1c0.7-0.1,1.5-0.2,2.5-0.4
			C326.5,213.3,326.9,212.9,326.9,212.2z"/>
	</g>
</g>
</svg>
