<svg enable-background="new 0 0 153.1 153.1" viewBox="0 0 153.1 153.1" xmlns="http://www.w3.org/2000/svg"><path d="m151.4 151.8h-60.7v-74.3c0-20.1 5.5-36.9 16.2-49.8 10.8-12.9 25.5-21.7 43.9-26.2l.6-.2v33.5l-.4.1c-5.6 1.7-10.2 3.9-13.6 6.5s-6.2 5.6-8.1 9.1c-1.9 3.4-3.2 7.5-3.7 12-.6 4.5-.9 9.6-.9 15v7.7h26.7zm-59.7-1h58.8v-64.6h-26.7v-8.7c0-5.5.3-10.6.9-15.2s1.9-8.8 3.9-12.3c2-3.6 4.8-6.7 8.3-9.4 3.5-2.6 8-4.8 13.6-6.6v-31.5c-17.9 4.5-32.3 13.2-42.8 25.8-10.6 12.7-16 29.3-16 49.2zm-29.3 1h-60.8v-74.3c0-20.1 5.5-36.9 16.2-49.8 10.8-13 25.6-21.8 44-26.3l.6-.2v33.5l-.4.2c-5.6 1.7-10.2 3.9-13.6 6.5s-6.1 5.6-7.9 9.1c-1.8 3.4-3.1 7.5-3.8 12s-1 9.6-1 15v7.7h26.7zm-59.8-1h58.8v-64.6h-26.7v-8.7c0-5.5.3-10.6 1-15.2s2-8.8 3.9-12.3c1.9-3.6 4.6-6.7 8.2-9.4 3.5-2.6 8-4.8 13.6-6.6v-31.5c-17.9 4.5-32.3 13.2-42.8 25.8-10.6 12.7-16 29.3-16 49.2z" fill="#202020"/></svg>