<?xml version="1.0" encoding="utf-8"?>
<!-- Generator: Adobe Illustrator 24.0.2, SVG Export Plug-In . SVG Version: 6.00 Build 0)  -->
<svg version="1.1" id="Layer_1" xmlns="http://www.w3.org/2000/svg" xmlns:xlink="http://www.w3.org/1999/xlink" x="0px" y="0px"
	 viewBox="0 0 153.1 153.1" style="enable-background:new 0 0 153.1 153.1;" xml:space="preserve">
<style type="text/css">
	.st0{fill:#2D2D2D;}
</style>
<path class="st0" d="M151.4,151.8H90.7V77.5c0-20.1,5.5-36.9,16.2-49.8C117.7,14.8,132.4,6,150.8,1.5l0.6-0.2v33.5l-0.4,0.1
	c-5.6,1.7-10.2,3.9-13.6,6.5s-6.2,5.6-8.1,9.1c-1.9,3.4-3.2,7.5-3.7,12c-0.6,4.5-0.9,9.6-0.9,15v7.7h26.7V151.8z M91.7,150.8h58.8
	V86.2h-26.7v-8.7c0-5.5,0.3-10.6,0.9-15.2s1.9-8.8,3.9-12.3c2-3.6,4.8-6.7,8.3-9.4c3.5-2.6,8-4.8,13.6-6.6V2.5
	c-17.9,4.5-32.3,13.2-42.8,25.8c-10.6,12.7-16,29.3-16,49.2L91.7,150.8z M62.4,151.8H1.6V77.5c0-20.1,5.5-36.9,16.2-49.8
	c10.8-13,25.6-21.8,44-26.3l0.6-0.2v33.5L62,34.9c-5.6,1.7-10.2,3.9-13.6,6.5s-6.1,5.6-7.9,9.1c-1.8,3.4-3.1,7.5-3.8,12s-1,9.6-1,15
	v7.7h26.7L62.4,151.8z M2.6,150.8h58.8V86.2H34.7v-8.7c0-5.5,0.3-10.6,1-15.2s2-8.8,3.9-12.3c1.9-3.6,4.6-6.7,8.2-9.4
	c3.5-2.6,8-4.8,13.6-6.6V2.5C43.5,7,29.1,15.7,18.6,28.3C8,41,2.6,57.6,2.6,77.5L2.6,150.8z"/>
</svg>
